<?xml version="1.0" encoding="UTF-8" standalone="yes"?>
<svg xmlns="http://www.w3.org/2000/svg" xmlns:xlink="http://www.w3.org/1999/xlink" width="3500pt" height="335pt" viewBox="0 432 3500 335" fill-rule="evenodd">
<g>
<path style="fill:#c9499c" d="M 139.36 761.45C 179.999 761.45 209.639 752.053 228.28 733.25C 246.917 714.452 256.24 684.891 256.24 644.57L 256.24 563.69C 256.24 523.213 246.88 493.61 228.16 474.89C 209.44 456.17 179.837 446.81 139.36 446.81L 23.68 446.81C 13.6 446.81 8.56 451.85 8.56 461.93L 8.56 746.33C 8.56 756.41 13.6 761.45 23.68 761.45L 139.36 761.45zM 38.8 477.05L 139.36 477.05C 160.799 477.05 177.839 479.81 190.48 485.33C 203.117 490.85 212.2 499.97 217.72 512.69C 223.24 525.41 226 542.413 226 563.69L 226 644.57C 226 665.852 223.24 682.85 217.72 695.57C 212.2 708.29 203.117 717.41 190.48 722.93C 177.839 728.45 160.799 731.21 139.36 731.21L 38.8 731.21L 38.8 477.05z"/>
<path style="fill:#c9499c" d="M 461.437 761.45C 492.157 761.45 514.675 754.25 528.997 739.85C 543.314 725.45 550.477 702.973 550.477 672.41L 550.477 618.17C 550.477 587.45 543.314 564.932 528.997 550.61C 514.675 536.293 492.157 529.13 461.437 529.13L 422.077 529.13C 391.514 528.973 369.037 536.053 354.637 550.37C 340.237 564.692 333.037 587.293 333.037 618.17L 333.037 672.891C 333.037 703.13 340.237 725.45 354.637 739.85C 369.037 754.25 391.514 761.45 422.077 761.45L 461.437 761.45zM 363.277 618.17C 363.277 603.133 365.114 591.332 368.797 582.771C 372.475 574.213 378.595 568.13 387.157 564.53C 395.714 560.93 407.354 559.213 422.077 559.37L 461.437 559.37C 483.674 559.37 499.034 563.612 507.517 572.09C 515.995 580.573 520.237 595.933 520.237 618.17L 520.237 672.41C 520.237 694.49 515.995 709.813 507.517 718.37C 499.034 726.932 483.674 731.21 461.437 731.21L 422.077 731.21C 399.997 731.21 384.674 726.973 376.117 718.49C 367.556 710.012 363.277 694.813 363.277 672.891L 363.277 618.17z"/>
<path style="fill:#c9499c" d="M 873.753 528.891C 858.07 528.891 845.193 531.692 835.113 537.29C 825.032 542.893 816.31 552.253 808.953 565.37C 803.031 552.41 794.751 543.092 784.113 537.41C 773.47 531.733 759.273 528.891 741.513 528.891L 728.313 528.891C 713.751 528.891 701.552 531.332 691.713 536.21C 681.873 541.093 673.191 549.133 665.673 560.33L 665.673 544.25C 665.673 534.17 660.633 529.13 650.553 529.13C 640.473 529.13 635.432 534.17 635.432 544.25L 635.432 746.57C 635.432 756.65 640.473 761.69 650.553 761.69C 660.633 761.69 665.673 756.65 665.673 746.57L 665.673 616.01C 665.673 595.85 669.993 581.33 678.633 572.45C 687.273 563.57 701.59 559.13 721.593 559.13L 741.513 559.13C 757.99 559.13 769.791 563.57 776.913 572.45C 784.03 581.33 787.593 595.85 787.593 616.01L 787.593 746.57C 787.593 756.65 792.633 761.69 802.713 761.69C 812.792 761.69 817.833 756.65 817.833 746.57L 817.833 616.01C 817.833 595.85 822.153 581.33 830.793 572.45C 839.433 563.57 853.75 559.13 873.753 559.13L 893.672 559.13C 910.15 559.13 921.951 563.57 929.073 572.45C 936.19 581.33 939.753 595.85 939.753 616.01L 939.753 746.57C 939.753 756.65 944.792 761.69 954.872 761.69C 964.953 761.69 969.993 756.65 969.993 746.57L 969.993 616.01C 969.993 584.81 964.113 562.49 952.353 549.05C 940.593 535.61 921.033 528.891 893.672 528.891L 873.753 528.891z"/>
<path style="fill:#c9499c" d="M 1252.71 657.29C 1262.79 657.29 1267.83 652.25 1267.83 642.17L 1267.83 618.17C 1267.83 587.45 1260.66 564.932 1246.35 550.61C 1232.02 536.293 1209.51 529.13 1178.79 529.13L 1139.43 529.13C 1108.86 528.812 1086.39 535.813 1071.99 550.13C 1057.59 564.452 1050.39 587.132 1050.39 618.17L 1050.39 672.891C 1050.39 703.13 1057.59 725.45 1071.99 739.85C 1086.39 754.25 1108.86 761.45 1139.43 761.45L 1178.79 761.45C 1205.82 761.45 1226.58 756.613 1241.07 746.93C 1255.54 737.252 1264.06 722.413 1266.63 702.41C 1267.42 697.292 1266.51 693.41 1263.87 690.771C 1261.23 688.13 1257.42 686.81 1252.47 686.81C 1247.67 686.81 1244.07 688.01 1241.67 690.41C 1239.27 692.81 1237.5 696.41 1236.39 701.21C 1234.47 712.25 1229.14 720.013 1220.43 724.49C 1211.7 728.972 1197.82 731.21 1178.79 731.21L 1139.43 731.21C 1117.35 731.21 1102.02 726.973 1093.47 718.49C 1084.9 710.012 1080.63 694.813 1080.63 672.891L 1080.63 657.29L 1252.71 657.29zM 1178.79 559.37C 1201.02 559.37 1216.38 563.612 1224.87 572.09C 1233.34 580.573 1237.59 595.933 1237.59 618.17L 1237.59 627.05L 1080.63 627.05L 1080.63 618.17C 1080.63 595.61 1084.9 580.093 1093.47 571.61C 1102.02 563.132 1117.35 559.052 1139.43 559.37L 1178.79 559.37z"/>
<path style="fill:#353537" d="M 1346.3 751.85L 1375.82 680.57L 1530.62 680.57L 1560.38 751.85C 1564.22 760.97 1570.78 763.689 1580.06 760.01C 1589.5 756.013 1592.22 749.372 1588.22 740.09L 1470.14 458.57C 1467.1 450.89 1461.66 446.972 1453.82 446.81L 1452.62 446.81C 1444.62 446.81 1438.94 450.733 1435.58 458.57L 1318.22 740.09C 1314.54 749.372 1317.34 756.013 1326.62 760.01C 1336.06 763.85 1342.62 761.132 1346.3 751.85L 1346.3 751.85zM 1452.62 494.57L 1517.9 650.33L 1388.06 650.33L 1452.62 494.57z"/>
<path style="fill:#353537" d="M 1781.9 761.21C 1804.61 761.21 1821.46 755.732 1832.42 744.77C 1843.37 733.813 1848.86 716.972 1848.86 694.25C 1848.86 671.533 1843.37 654.692 1832.42 643.73C 1821.46 632.773 1804.61 627.29 1781.9 627.29L 1704.38 627.29C 1691.26 627.29 1682.3 624.891 1677.5 620.09C 1672.7 615.29 1670.3 606.41 1670.3 593.45C 1670.3 579.853 1672.66 570.733 1677.38 566.09C 1682.09 561.452 1691.09 559.13 1704.38 559.13L 1779.5 559.13C 1789.73 559.13 1797.26 560.492 1802.06 563.21C 1806.86 565.933 1809.98 570.891 1811.42 578.09C 1812.53 582.733 1814.26 586.292 1816.58 588.771C 1818.89 591.253 1822.46 592.49 1827.26 592.49C 1832.38 592.49 1836.34 591.092 1839.14 588.29C 1841.93 585.493 1842.86 581.612 1841.9 576.651C 1837.1 544.813 1816.3 528.891 1779.5 528.891L 1704.38 528.891C 1682.62 528.891 1666.46 534.133 1655.9 544.61C 1645.34 555.092 1640.06 571.37 1640.06 593.45C 1640.06 615.05 1645.37 631.13 1656.02 641.69C 1666.66 652.25 1682.78 657.53 1704.38 657.53L 1781.9 657.53C 1796.14 657.53 1805.81 660.092 1810.94 665.21C 1816.06 670.333 1818.62 680.012 1818.62 694.25C 1818.62 708.493 1816.06 718.172 1810.94 723.29C 1805.81 728.413 1796.14 730.97 1781.9 730.97L 1703.18 730.97C 1691.98 730.97 1683.65 729.373 1678.22 726.17C 1672.78 722.972 1669.25 717.29 1667.66 709.13C 1666.7 704.173 1665.05 700.453 1662.74 697.97C 1660.42 695.492 1656.77 694.25 1651.82 694.25C 1646.86 694.25 1642.97 695.653 1640.18 698.45C 1637.38 701.252 1636.3 705.212 1636.94 710.33C 1639.49 727.453 1646.21 740.21 1657.1 748.61C 1667.98 757.01 1683.34 761.21 1703.18 761.21L 1781.9 761.21z"/>
<path style="fill:#353537" d="M 2058.37 761.21C 2081.09 761.21 2097.93 755.732 2108.89 744.77C 2119.85 733.813 2125.33 716.972 2125.33 694.25C 2125.33 671.533 2119.85 654.692 2108.89 643.73C 2097.93 632.773 2081.09 627.29 2058.37 627.29L 1980.85 627.29C 1967.73 627.29 1958.77 624.891 1953.97 620.09C 1949.17 615.29 1946.77 606.41 1946.77 593.45C 1946.77 579.853 1949.13 570.733 1953.85 566.09C 1958.57 561.452 1967.57 559.13 1980.85 559.13L 2055.97 559.13C 2066.21 559.13 2073.73 560.492 2078.53 563.21C 2083.33 565.933 2086.45 570.891 2087.89 578.09C 2089.01 582.733 2090.73 586.292 2093.05 588.771C 2095.37 591.253 2098.93 592.49 2103.73 592.49C 2108.85 592.49 2112.81 591.092 2115.61 588.29C 2118.41 585.493 2119.33 581.612 2118.37 576.651C 2113.57 544.813 2092.77 528.891 2055.97 528.891L 1980.85 528.891C 1959.09 528.891 1942.93 534.133 1932.37 544.61C 1921.81 555.092 1916.53 571.37 1916.53 593.45C 1916.53 615.05 1921.85 631.13 1932.49 641.69C 1943.13 652.25 1959.25 657.53 1980.85 657.53L 2058.37 657.53C 2072.61 657.53 2082.29 660.092 2087.41 665.21C 2092.53 670.333 2095.09 680.012 2095.09 694.25C 2095.09 708.493 2092.53 718.172 2087.41 723.29C 2082.29 728.413 2072.61 730.97 2058.37 730.97L 1979.65 730.97C 1968.45 730.97 1960.13 729.373 1954.69 726.17C 1949.25 722.972 1945.73 717.29 1944.13 709.13C 1943.17 704.173 1941.53 700.453 1939.21 697.97C 1936.89 695.492 1933.25 694.25 1928.29 694.25C 1923.33 694.25 1919.45 695.653 1916.65 698.45C 1913.85 701.252 1912.77 705.212 1913.41 710.33C 1915.97 727.453 1922.69 740.21 1933.57 748.61C 1944.45 757.01 1959.81 761.21 1979.65 761.21L 2058.37 761.21z"/>
<path style="fill:#353537" d="M 2225.17 486.89C 2237.17 486.89 2243.17 480.572 2243.17 467.93L 2243.17 455.93C 2243.17 443.612 2237.17 437.45 2225.17 437.45L 2213.41 437.45C 2200.93 437.45 2194.69 443.612 2194.69 455.93L 2194.69 467.93C 2194.69 480.572 2200.93 486.89 2213.41 486.89L 2225.17 486.89zM 2234.29 746.33L 2234.29 544.25C 2234.29 534.17 2229.25 529.13 2219.17 529.13C 2209.09 529.13 2204.05 534.17 2204.05 544.25L 2204.05 746.33C 2204.05 756.41 2209.09 761.45 2219.17 761.45C 2229.25 761.45 2234.29 756.41 2234.29 746.33L 2234.29 746.33z"/>
<path style="fill:#353537" d="M 2458.2 761.21C 2480.92 761.21 2497.76 755.732 2508.72 744.77C 2519.68 733.813 2525.16 716.972 2525.16 694.25C 2525.16 671.533 2519.68 654.692 2508.72 643.73C 2497.76 632.773 2480.92 627.29 2458.2 627.29L 2380.68 627.29C 2367.56 627.29 2358.6 624.891 2353.8 620.09C 2349 615.29 2346.6 606.41 2346.6 593.45C 2346.6 579.853 2348.96 570.733 2353.68 566.09C 2358.4 561.452 2367.4 559.13 2380.68 559.13L 2455.8 559.13C 2466.04 559.13 2473.56 560.492 2478.36 563.21C 2483.16 565.933 2486.28 570.891 2487.72 578.09C 2488.84 582.733 2490.56 586.292 2492.88 588.771C 2495.2 591.253 2498.76 592.49 2503.56 592.49C 2508.68 592.49 2512.64 591.092 2515.44 588.29C 2518.24 585.493 2519.16 581.612 2518.2 576.651C 2513.4 544.813 2492.6 528.891 2455.8 528.891L 2380.68 528.891C 2358.92 528.891 2342.76 534.133 2332.2 544.61C 2321.64 555.092 2316.36 571.37 2316.36 593.45C 2316.36 615.05 2321.68 631.13 2332.32 641.69C 2342.96 652.25 2359.08 657.53 2380.68 657.53L 2458.2 657.53C 2472.44 657.53 2482.12 660.092 2487.24 665.21C 2492.36 670.333 2494.92 680.012 2494.92 694.25C 2494.92 708.493 2492.36 718.172 2487.24 723.29C 2482.12 728.413 2472.44 730.97 2458.2 730.97L 2379.48 730.97C 2368.28 730.97 2359.96 729.373 2354.52 726.17C 2349.08 722.972 2345.56 717.29 2343.96 709.13C 2343 704.173 2341.36 700.453 2339.04 697.97C 2336.72 695.492 2333.08 694.25 2328.12 694.25C 2323.16 694.25 2319.28 695.653 2316.48 698.45C 2313.68 701.252 2312.6 705.212 2313.24 710.33C 2315.8 727.453 2322.52 740.21 2333.4 748.61C 2344.28 757.01 2359.64 761.21 2379.48 761.21L 2458.2 761.21z"/>
<path style="fill:#353537" d="M 2715.23 746.33C 2715.23 741.212 2713.99 737.413 2711.52 734.93C 2709.03 732.452 2705.15 731.21 2699.88 731.21C 2678.27 731.21 2663.31 727.13 2655 718.97C 2646.67 710.81 2642.51 695.93 2642.51 674.33L 2642.51 559.37L 2701.07 559.37C 2711.16 559.37 2716.19 554.33 2716.19 544.25C 2716.19 534.17 2711.16 529.13 2701.07 529.13L 2642.51 529.13L 2642.51 483.05C 2642.51 472.97 2637.47 467.93 2627.4 467.93C 2617.31 467.93 2612.27 472.97 2612.27 483.05L 2612.27 529.13L 2585.4 529.13C 2575.31 529.13 2570.27 534.17 2570.27 544.25C 2570.27 554.33 2575.31 559.37 2585.4 559.37L 2612.27 559.37L 2612.27 674.33C 2612.27 704.252 2619.31 726.253 2633.4 740.33C 2647.47 754.412 2669.64 761.45 2699.88 761.45C 2710.11 761.45 2715.23 756.41 2715.23 746.33L 2715.23 746.33z"/>
<path style="fill:#353537" d="M 2867.87 761.45C 2905.31 761.45 2931.95 749.852 2947.79 726.65L 2947.79 746.33C 2947.79 756.41 2952.83 761.45 2962.91 761.45C 2972.99 761.45 2978.03 756.41 2978.03 746.33L 2978.03 618.17C 2978.03 587.45 2970.87 564.932 2956.55 550.61C 2942.23 536.293 2919.71 529.13 2888.99 529.13L 2861.15 529.13C 2833.79 529.13 2812.75 533.293 2798.03 541.61C 2783.31 549.932 2774.43 563.21 2771.39 581.45C 2770.59 586.25 2771.59 590.053 2774.39 592.85C 2777.19 595.652 2781.07 597.05 2786.03 597.05C 2790.67 597.05 2794.15 595.97 2796.47 593.81C 2798.79 591.65 2800.75 588.17 2802.35 583.37C 2804.91 574.573 2810.63 568.37 2819.51 564.771C 2828.39 561.17 2842.27 559.37 2861.15 559.37L 2888.99 559.37C 2910.11 559.37 2925.03 563.21 2933.75 570.891C 2942.47 578.57 2947.15 592.25 2947.79 611.93L 2840.99 611.93C 2815.55 611.93 2796.75 618.013 2784.59 630.17C 2772.43 642.332 2766.35 661.213 2766.35 686.81C 2766.35 712.25 2772.43 731.053 2784.59 743.21C 2796.75 755.372 2815.55 761.45 2840.99 761.45L 2867.87 761.45zM 2805.95 721.85C 2799.71 715.61 2796.59 703.933 2796.59 686.81C 2796.59 669.53 2799.71 657.771 2805.95 651.53C 2812.19 645.29 2823.87 642.17 2840.99 642.17L 2947.79 642.17L 2947.79 682.97C 2946.03 694.97 2941.51 704.492 2934.23 711.53C 2926.95 718.573 2917.67 723.613 2906.39 726.65C 2895.11 729.692 2882.27 731.21 2867.87 731.21L 2840.99 731.21C 2823.87 731.21 2812.19 728.09 2805.95 721.85z"/>
<path style="fill:#353537" d="M 3096.83 746.33L 3096.83 600.891C 3098.75 586.652 3106.83 576.17 3121.07 569.45C 3135.31 562.73 3153.87 559.37 3176.75 559.37L 3190.19 559.37C 3212.27 559.37 3227.59 563.612 3236.15 572.09C 3244.71 580.573 3248.99 595.933 3248.99 618.17L 3248.99 746.33C 3248.99 756.41 3254.03 761.45 3264.11 761.45C 3274.19 761.45 3279.23 756.41 3279.23 746.33L 3279.23 618.17C 3279.23 587.45 3272.07 564.932 3257.75 550.61C 3243.43 536.293 3220.91 529.13 3190.19 529.13L 3176.75 529.13C 3139.31 529.13 3112.67 540.092 3096.83 562.01L 3096.83 544.25C 3096.83 534.17 3091.79 529.13 3081.71 529.13C 3071.63 529.13 3066.59 534.17 3066.59 544.25L 3066.59 746.33C 3066.59 756.41 3071.63 761.45 3081.71 761.45C 3091.79 761.45 3096.83 756.41 3096.83 746.33L 3096.83 746.33z"/>
<path style="fill:#353537" d="M 3479.14 746.33C 3479.14 741.212 3477.9 737.413 3475.42 734.93C 3472.94 732.452 3469.06 731.21 3463.78 731.21C 3442.18 731.21 3427.22 727.13 3418.9 718.97C 3410.58 710.81 3406.42 695.93 3406.42 674.33L 3406.42 559.37L 3464.98 559.37C 3475.06 559.37 3480.1 554.33 3480.1 544.25C 3480.1 534.17 3475.06 529.13 3464.98 529.13L 3406.42 529.13L 3406.42 483.05C 3406.42 472.97 3401.38 467.93 3391.3 467.93C 3381.22 467.93 3376.18 472.97 3376.18 483.05L 3376.18 529.13L 3349.3 529.13C 3339.22 529.13 3334.18 534.17 3334.18 544.25C 3334.18 554.33 3339.22 559.37 3349.3 559.37L 3376.18 559.37L 3376.18 674.33C 3376.18 704.252 3383.22 726.253 3397.3 740.33C 3411.38 754.412 3433.54 761.45 3463.78 761.45C 3474.02 761.45 3479.14 756.41 3479.14 746.33L 3479.14 746.33z"/>
</g>
</svg>